<svg xmlns="http://www.w3.org/2000/svg" viewBox="0 0 40 40" fill="none">
  <title>Raff retrieval rail mark</title>
  <path d="M6 9.5h28a2 2 0 0 1 2 2v1.3a2 2 0 0 1-2 2H6a2 2 0 0 1-2-2v-1.3a2 2 0 0 1 2-2Z" fill="#D9962E"/>
  <path d="M31.5 14.8v8.7c0 4.2-2.6 6.8-6.8 6.8H12.2a3.8 3.8 0 0 1-3.8-3.8v-6.2" stroke="#D9962E" stroke-width="3.6" stroke-linecap="round" stroke-linejoin="round" opacity=".62"/>
  <path d="M14.2 21.2h11.6" stroke="#D9962E" stroke-width="3.6" stroke-linecap="round" opacity=".3"/>
  <rect x="17" y="4.5" width="6" height="5" rx="2" fill="#D9962E" opacity=".9"/>
</svg>

