<svg xmlns="http://www.w3.org/2000/svg" width="240" height="88" viewBox="0 0 240 88" fill="none">
  <title>رفّ — Arabic primary lockup</title>
  <g transform="translate(181 20)">
    <path d="M6 9.5h28a2 2 0 0 1 2 2v1.3a2 2 0 0 1-2 2H6a2 2 0 0 1-2-2v-1.3a2 2 0 0 1 2-2Z" fill="#D9962E"/>
    <path d="M31.5 14.8v8.7c0 4.2-2.6 6.8-6.8 6.8H12.2a3.8 3.8 0 0 1-3.8-3.8v-6.2" stroke="#D9962E" stroke-width="3.6" stroke-linecap="round" stroke-linejoin="round" opacity=".62"/>
    <path d="M14.2 21.2h11.6" stroke="#D9962E" stroke-width="3.6" stroke-linecap="round" opacity=".3"/>
    <rect x="17" y="4.5" width="6" height="5" rx="2" fill="#D9962E"/>
  </g>
  <text x="162" y="55" text-anchor="end" fill="#211D19" font-family="Almarai, sans-serif" font-size="48" font-weight="800">رفّ</text>
  <rect x="89" y="62" width="34" height="3" rx="1.5" fill="#211D19" opacity=".45"/>
</svg>

