<svg xmlns="http://www.w3.org/2000/svg" width="1600" height="480" viewBox="0 0 1600 480">
  <rect width="1600" height="480" rx="32" fill="#100E0C"/>
  <rect x="0" y="170" width="1120" height="5" rx="2.5" fill="#ECB751" opacity=".34"/>
  <g transform="translate(1320 96) scale(2)">
    <path d="M6 9.5h28a2 2 0 0 1 2 2v1.3a2 2 0 0 1-2 2H6a2 2 0 0 1-2-2v-1.3a2 2 0 0 1 2-2Z" fill="#ECB751"/>
    <path d="M31.5 14.8v8.7c0 4.2-2.6 6.8-6.8 6.8H12.2a3.8 3.8 0 0 1-3.8-3.8v-6.2" stroke="#ECB751" stroke-width="3.6" stroke-linecap="round" stroke-linejoin="round" opacity=".62"/>
    <rect x="17" y="4.5" width="6" height="5" rx="2" fill="#ECB751"/>
  </g>
  <text x="1280" y="180" text-anchor="end" fill="#F3F1ED" font-family="Almarai, sans-serif" font-size="76" font-weight="800">رفّ</text>
  <text x="1280" y="220" text-anchor="end" fill="#A49E94" font-family="Almarai, sans-serif" font-size="23" font-weight="700" letter-spacing="6">RAFF</text>
  <text x="1280" y="320" text-anchor="end" fill="#CBC6BD" font-family="Cairo, sans-serif" font-size="31">مدير حافظة محلي لنظام macOS، مصمم للعربية أولًا.</text>
  <text x="1280" y="380" text-anchor="end" fill="#ECB751" font-family="Cairo, sans-serif" font-size="22">Keyboard‑First · No accounts · No cloud · No analytics</text>
</svg>

